<?xml version="1.0" encoding="UTF-8" standalone="no"?>
<!DOCTYPE svg PUBLIC "-//W3C//DTD SVG 1.1//EN"
 "http://www.w3.org/Graphics/SVG/1.1/DTD/svg11.dtd">
<!-- Generated by graphviz version 2.43.0 (0)
 -->
<!-- Title: %3 Pages: 1 -->
<svg width="345pt" height="44pt"
 viewBox="0.00 0.00 345.00 44.00" xmlns="http://www.w3.org/2000/svg" xmlns:xlink="http://www.w3.org/1999/xlink">
<g id="graph0" class="graph" transform="scale(1 1) rotate(0) translate(4 40)">
<title>%3</title>
<!-- Seed -->
<g id="node1" class="node">
<title>Seed</title>
<path fill="#b2ebf2" stroke="#2980b9" d="M42,-36C42,-36 12,-36 12,-36 6,-36 0,-30 0,-24 0,-24 0,-12 0,-12 0,-6 6,0 12,0 12,0 42,0 42,0 48,0 54,-6 54,-12 54,-12 54,-24 54,-24 54,-30 48,-36 42,-36"/>
<text text-anchor="middle" x="27" y="-14.3" font-family="Segoe UI,Roboto,Helvetica,Arial,sans-serif" font-size="14.00" fill="#000000">Seed</text>
</g>
<!-- U -->
<g id="node3" class="node">
<title>U</title>
<path fill="#b2ebf2" stroke="#2980b9" d="M170,-36C170,-36 121,-36 121,-36 115,-36 109,-30 109,-24 109,-24 109,-12 109,-12 109,-6 115,0 121,0 121,0 170,0 170,0 176,0 182,-6 182,-12 182,-12 182,-24 182,-24 182,-30 176,-36 170,-36"/>
<text text-anchor="middle" x="145.5" y="-14.3" font-family="Segoe UI,Roboto,Helvetica,Arial,sans-serif" font-size="14.00" fill="#000000">Unit =&gt; C</text>
</g>
<!-- Seed&#45;&gt;U -->
<g id="edge1" class="edge">
<title>Seed&#45;&gt;U</title>
<path fill="none" stroke="#2980b9" d="M54.14,-18C67.23,-18 83.45,-18 98.52,-18"/>
<polygon fill="#2980b9" stroke="#2980b9" points="98.72,-21.5 108.72,-18 98.72,-14.5 98.72,-21.5"/>
<text text-anchor="middle" x="81.5" y="-21.2" font-family="Segoe UI,Roboto,Helvetica,Arial,sans-serif" font-size="11.00" fill="#000000">gen</text>
</g>
<!-- UF -->
<g id="node2" class="node">
<title>UF</title>
<path fill="#b2ebf2" stroke="#2980b9" d="M325,-36C325,-36 269,-36 269,-36 263,-36 257,-30 257,-24 257,-24 257,-12 257,-12 257,-6 263,0 269,0 269,0 325,0 325,0 331,0 337,-6 337,-12 337,-12 337,-24 337,-24 337,-30 331,-36 325,-36"/>
<text text-anchor="middle" x="297" y="-14.3" font-family="Segoe UI,Roboto,Helvetica,Arial,sans-serif" font-size="14.00" fill="#000000">UnitFun[C]</text>
</g>
<!-- UF&#45;&gt;U -->
<g id="edge3" class="edge">
<title>UF&#45;&gt;U</title>
<path fill="none" stroke="#2980b9" d="M256.74,-5.48C250.85,-4.04 244.8,-2.8 239,-2 221.83,0.36 217.15,0.51 200,-2 197.35,-2.39 194.65,-2.88 191.93,-3.45"/>
<polygon fill="#2980b9" stroke="#2980b9" points="191.06,-0.06 182.15,-5.78 192.69,-6.86 191.06,-0.06"/>
<text text-anchor="middle" x="219.5" y="-5.2" font-family="Segoe UI,Roboto,Helvetica,Arial,sans-serif" font-size="11.00" fill="#000000">&lt;:</text>
</g>
<!-- U&#45;&gt;UF -->
<g id="edge2" class="edge">
<title>U&#45;&gt;UF</title>
<path fill="none" stroke="#2980b9" d="M182.31,-18C201.61,-18 225.72,-18 246.76,-18"/>
<polygon fill="#2980b9" stroke="#2980b9" points="246.81,-21.5 256.81,-18 246.81,-14.5 246.81,-21.5"/>
<text text-anchor="middle" x="219.5" y="-21.2" font-family="Segoe UI,Roboto,Helvetica,Arial,sans-serif" font-size="11.00" fill="#000000">UnitFun</text>
</g>
</g>
</svg>
