<?xml version="1.0" encoding="UTF-8" standalone="no"?>
<!DOCTYPE svg PUBLIC "-//W3C//DTD SVG 1.1//EN"
 "http://www.w3.org/Graphics/SVG/1.1/DTD/svg11.dtd">
<!-- Generated by graphviz version 2.43.0 (0)
 -->
<!-- Title: %3 Pages: 1 -->
<svg width="179pt" height="74pt"
 viewBox="0.00 0.00 179.00 74.00" xmlns="http://www.w3.org/2000/svg" xmlns:xlink="http://www.w3.org/1999/xlink">
<g id="graph0" class="graph" transform="scale(1 1) rotate(0) translate(4 70)">
<title>%3</title>
<!-- Unit -->
<g id="node1" class="node">
<title>Unit</title>
<path fill="#b2ebf2" stroke="#2980b9" d="M42,-36C42,-36 12,-36 12,-36 6,-36 0,-30 0,-24 0,-24 0,-12 0,-12 0,-6 6,0 12,0 12,0 42,0 42,0 48,0 54,-6 54,-12 54,-12 54,-24 54,-24 54,-30 48,-36 42,-36"/>
<text text-anchor="middle" x="27" y="-14.3" font-family="Segoe UI,Roboto,Helvetica,Arial,sans-serif" font-size="14.00" fill="#000000">Unit</text>
</g>
<!-- Unit&#45;&gt;Unit -->
<g id="edge1" class="edge">
<title>Unit&#45;&gt;Unit</title>
<path fill="none" stroke="#2980b9" d="M16.51,-36.15C14.89,-45.54 18.39,-54 27,-54 32.25,-54 35.59,-50.86 37.04,-46.28"/>
<polygon fill="#2980b9" stroke="#2980b9" points="40.55,-46.3 37.49,-36.15 33.55,-45.99 40.55,-46.3"/>
<text text-anchor="middle" x="27" y="-57.2" font-family="Segoe UI,Roboto,Helvetica,Arial,sans-serif" font-size="11.00" fill="#000000">shrink</text>
</g>
<!-- C -->
<g id="node2" class="node">
<title>C</title>
<path fill="#b2ebf2" stroke="#2980b9" d="M159,-36C159,-36 129,-36 129,-36 123,-36 117,-30 117,-24 117,-24 117,-12 117,-12 117,-6 123,0 129,0 129,0 159,0 159,0 165,0 171,-6 171,-12 171,-12 171,-24 171,-24 171,-30 165,-36 159,-36"/>
<text text-anchor="middle" x="144" y="-14.3" font-family="Segoe UI,Roboto,Helvetica,Arial,sans-serif" font-size="14.00" fill="#000000">C</text>
</g>
<!-- Unit&#45;&gt;C -->
<g id="edge3" class="edge">
<title>Unit&#45;&gt;C</title>
<path fill="none" stroke="#2980b9" d="M54.1,-18C69.57,-18 89.43,-18 106.44,-18"/>
<polygon fill="#2980b9" stroke="#2980b9" points="106.61,-21.5 116.61,-18 106.61,-14.5 106.61,-21.5"/>
<text text-anchor="middle" x="85.5" y="-21.2" font-family="Segoe UI,Roboto,Helvetica,Arial,sans-serif" font-size="11.00" fill="#000000">apply</text>
</g>
<!-- C&#45;&gt;C -->
<g id="edge2" class="edge">
<title>C&#45;&gt;C</title>
<path fill="none" stroke="#2980b9" d="M133.51,-36.15C131.89,-45.54 135.39,-54 144,-54 149.25,-54 152.59,-50.86 154.04,-46.28"/>
<polygon fill="#2980b9" stroke="#2980b9" points="157.55,-46.3 154.49,-36.15 150.55,-45.99 157.55,-46.3"/>
<text text-anchor="middle" x="144" y="-57.2" font-family="Segoe UI,Roboto,Helvetica,Arial,sans-serif" font-size="11.00" fill="#000000">shrink</text>
</g>
</g>
</svg>
