<?xml version="1.0" encoding="UTF-8" standalone="no"?>
<!DOCTYPE svg PUBLIC "-//W3C//DTD SVG 1.1//EN"
 "http://www.w3.org/Graphics/SVG/1.1/DTD/svg11.dtd">
<!-- Generated by graphviz version 2.43.0 (0)
 -->
<!-- Title: %3 Pages: 1 -->
<svg width="207pt" height="74pt"
 viewBox="0.00 0.00 207.00 74.00" xmlns="http://www.w3.org/2000/svg" xmlns:xlink="http://www.w3.org/1999/xlink">
<g id="graph0" class="graph" transform="scale(1 1) rotate(0) translate(4 70)">
<title>%3</title>
<!-- U -->
<g id="node1" class="node">
<title>U</title>
<path fill="#b2ebf2" stroke="#2980b9" d="M61,-36C61,-36 12,-36 12,-36 6,-36 0,-30 0,-24 0,-24 0,-12 0,-12 0,-6 6,0 12,0 12,0 61,0 61,0 67,0 73,-6 73,-12 73,-12 73,-24 73,-24 73,-30 67,-36 61,-36"/>
<text text-anchor="middle" x="36.5" y="-14.3" font-family="Segoe UI,Roboto,Helvetica,Arial,sans-serif" font-size="14.00" fill="#000000">Unit =&gt; C</text>
</g>
<!-- U&#45;&gt;U -->
<g id="edge1" class="edge">
<title>U&#45;&gt;U</title>
<path fill="none" stroke="#2980b9" d="M26.01,-36.15C24.39,-45.54 27.89,-54 36.5,-54 41.75,-54 45.09,-50.86 46.54,-46.28"/>
<polygon fill="#2980b9" stroke="#2980b9" points="50.05,-46.3 46.99,-36.15 43.05,-45.99 50.05,-46.3"/>
<text text-anchor="middle" x="36.5" y="-57.2" font-family="Segoe UI,Roboto,Helvetica,Arial,sans-serif" font-size="11.00" fill="#000000">shrink</text>
</g>
<!-- UF -->
<g id="node2" class="node">
<title>UF</title>
<path fill="#b2ebf2" stroke="#2980b9" d="M187,-36C187,-36 131,-36 131,-36 125,-36 119,-30 119,-24 119,-24 119,-12 119,-12 119,-6 125,0 131,0 131,0 187,0 187,0 193,0 199,-6 199,-12 199,-12 199,-24 199,-24 199,-30 193,-36 187,-36"/>
<text text-anchor="middle" x="159" y="-14.3" font-family="Segoe UI,Roboto,Helvetica,Arial,sans-serif" font-size="14.00" fill="#000000">UnitFun[C]</text>
</g>
<!-- U&#45;&gt;UF -->
<g id="edge3" class="edge">
<title>U&#45;&gt;UF</title>
<path fill="none" stroke="#2980b9" d="M73,-18C84.17,-18 96.71,-18 108.66,-18"/>
<polygon fill="#2980b9" stroke="#2980b9" points="108.96,-21.5 118.96,-18 108.96,-14.5 108.96,-21.5"/>
<text text-anchor="middle" x="96" y="-21.2" font-family="Segoe UI,Roboto,Helvetica,Arial,sans-serif" font-size="11.00" fill="#000000">&gt;:</text>
</g>
<!-- UF&#45;&gt;U -->
<g id="edge4" class="edge">
<title>UF&#45;&gt;U</title>
<path fill="none" stroke="#2980b9" d="M118.9,-3.52C109.8,-1.58 100.11,-0.67 91,-2 88.35,-2.39 85.65,-2.88 82.93,-3.45"/>
<polygon fill="#2980b9" stroke="#2980b9" points="82.06,-0.06 73.15,-5.78 83.69,-6.86 82.06,-0.06"/>
<text text-anchor="middle" x="96" y="-5.2" font-family="Segoe UI,Roboto,Helvetica,Arial,sans-serif" font-size="11.00" fill="#000000">&lt;:</text>
</g>
<!-- UF&#45;&gt;UF -->
<g id="edge2" class="edge">
<title>UF&#45;&gt;UF</title>
<path fill="none" stroke="#2980b9" d="M147.78,-36.15C146.06,-45.54 149.8,-54 159,-54 164.61,-54 168.19,-50.86 169.74,-46.28"/>
<polygon fill="#2980b9" stroke="#2980b9" points="173.24,-46.31 170.22,-36.15 166.25,-45.98 173.24,-46.31"/>
<text text-anchor="middle" x="159" y="-57.2" font-family="Segoe UI,Roboto,Helvetica,Arial,sans-serif" font-size="11.00" fill="#000000">shrink</text>
</g>
</g>
</svg>
