<?xml version="1.0" encoding="UTF-8" standalone="no"?>
<!DOCTYPE svg PUBLIC "-//W3C//DTD SVG 1.1//EN"
 "http://www.w3.org/Graphics/SVG/1.1/DTD/svg11.dtd">
<!-- Generated by graphviz version 2.43.0 (0)
 -->
<!-- Title: %3 Pages: 1 -->
<svg width="218pt" height="116pt"
 viewBox="0.00 0.00 218.00 116.00" xmlns="http://www.w3.org/2000/svg" xmlns:xlink="http://www.w3.org/1999/xlink">
<g id="graph0" class="graph" transform="scale(1 1) rotate(0) translate(4 112)">
<title>%3</title>
<!-- UF -->
<g id="node1" class="node">
<title>UF</title>
<path fill="#b2ebf2" stroke="#2980b9" d="M68,-108C68,-108 12,-108 12,-108 6,-108 0,-102 0,-96 0,-96 0,-84 0,-84 0,-78 6,-72 12,-72 12,-72 68,-72 68,-72 74,-72 80,-78 80,-84 80,-84 80,-96 80,-96 80,-102 74,-108 68,-108"/>
<text text-anchor="middle" x="40" y="-86.3" font-family="Segoe UI,Roboto,Helvetica,Arial,sans-serif" font-size="14.00" fill="#000000">UnitFun[C]</text>
</g>
<!-- U -->
<g id="node2" class="node">
<title>U</title>
<path fill="#b2ebf2" stroke="#2980b9" d="M64.5,-36C64.5,-36 15.5,-36 15.5,-36 9.5,-36 3.5,-30 3.5,-24 3.5,-24 3.5,-12 3.5,-12 3.5,-6 9.5,0 15.5,0 15.5,0 64.5,0 64.5,0 70.5,0 76.5,-6 76.5,-12 76.5,-12 76.5,-24 76.5,-24 76.5,-30 70.5,-36 64.5,-36"/>
<text text-anchor="middle" x="40" y="-14.3" font-family="Segoe UI,Roboto,Helvetica,Arial,sans-serif" font-size="14.00" fill="#000000">Unit =&gt; C</text>
</g>
<!-- UF&#45;&gt;U -->
<g id="edge2" class="edge">
<title>UF&#45;&gt;U</title>
<path fill="none" stroke="#2980b9" d="M40,-71.59C40,-63.94 40,-54.89 40,-46.43"/>
<polygon fill="#2980b9" stroke="#2980b9" points="43.5,-46.17 40,-36.17 36.5,-46.17 43.5,-46.17"/>
<text text-anchor="middle" x="31" y="-51.2" font-family="Segoe UI,Roboto,Helvetica,Arial,sans-serif" font-size="11.00" fill="#000000">f</text>
</g>
<!-- C -->
<g id="node3" class="node">
<title>C</title>
<path fill="#b2ebf2" stroke="#2980b9" d="M198,-46C198,-46 168,-46 168,-46 162,-46 156,-40 156,-34 156,-34 156,-22 156,-22 156,-16 162,-10 168,-10 168,-10 198,-10 198,-10 204,-10 210,-16 210,-22 210,-22 210,-34 210,-34 210,-40 204,-46 198,-46"/>
<text text-anchor="middle" x="183" y="-24.3" font-family="Segoe UI,Roboto,Helvetica,Arial,sans-serif" font-size="14.00" fill="#000000">C</text>
</g>
<!-- UF&#45;&gt;C -->
<g id="edge3" class="edge">
<title>UF&#45;&gt;C</title>
<path fill="none" stroke="#2980b9" d="M80.28,-72.73C101.1,-63.57 126.47,-52.42 146.67,-43.53"/>
<polygon fill="#2980b9" stroke="#2980b9" points="148.1,-46.73 155.84,-39.5 145.28,-40.32 148.1,-46.73"/>
<text text-anchor="middle" x="118" y="-67.2" font-family="Segoe UI,Roboto,Helvetica,Arial,sans-serif" font-size="11.00" fill="#000000">apply</text>
</g>
<!-- String -->
<g id="node4" class="node">
<title>String</title>
<path fill="#b2ebf2" stroke="#2980b9" d="M198,-108C198,-108 168,-108 168,-108 162,-108 156,-102 156,-96 156,-96 156,-84 156,-84 156,-78 162,-72 168,-72 168,-72 198,-72 198,-72 204,-72 210,-78 210,-84 210,-84 210,-96 210,-96 210,-102 204,-108 198,-108"/>
<text text-anchor="middle" x="183" y="-86.3" font-family="Segoe UI,Roboto,Helvetica,Arial,sans-serif" font-size="14.00" fill="#000000">String</text>
</g>
<!-- UF&#45;&gt;String -->
<g id="edge4" class="edge">
<title>UF&#45;&gt;String</title>
<path fill="none" stroke="#2980b9" d="M80.28,-90C100.72,-90 125.56,-90 145.57,-90"/>
<polygon fill="#2980b9" stroke="#2980b9" points="145.84,-93.5 155.84,-90 145.84,-86.5 145.84,-93.5"/>
<text text-anchor="middle" x="118" y="-93.2" font-family="Segoe UI,Roboto,Helvetica,Arial,sans-serif" font-size="11.00" fill="#000000">toString</text>
</g>
<!-- U&#45;&gt;C -->
<g id="edge1" class="edge">
<title>U&#45;&gt;C</title>
<path fill="none" stroke="#2980b9" d="M76.54,-18.02C94.92,-18.3 117.7,-19.08 138,-21 140.49,-21.24 143.06,-21.52 145.64,-21.85"/>
<polygon fill="#2980b9" stroke="#2980b9" points="145.16,-25.31 155.54,-23.23 146.13,-18.38 145.16,-25.31"/>
<text text-anchor="middle" x="118" y="-24.2" font-family="Segoe UI,Roboto,Helvetica,Arial,sans-serif" font-size="11.00" fill="#000000">apply</text>
</g>
</g>
</svg>
